Simulation
nRows=31
nColumns=15
endheader
time  TH_x TH_y TH_z SC_y  SC_z  SC_x  AC_y  AC_z  AC_x  GH_y  GH_z  GH_yy  EL_x  PS_y
0.0  0.000000  0.000000  0.000000  -21.481837363305974  5.049547332879065  0.3347068766571287  40.664297421554316  3.877205473185281  -9.353941176025469  80.23698501200437  10.578519896891006  -26.15437797499869  20.78157921825632  120.000000
0.04802000000000001  0.000000  0.000000  0.000000  -22.218332421173244  5.069038530424525  0.3553517351025003  41.17088210709487  4.6371452205441965  -8.821348414361953  73.30083473745476  10.214961590760403  -20.190591149888334  20.26201771835076  120.000000
0.09604000000000001  0.000000  0.000000  0.000000  -22.826912589175695  5.055521635536868  0.32539994315316656  41.61165560950408  5.291959728667056  -8.333692761182007  65.61390106134776  10.09970631744641  -13.588769789594842  19.71878857150066  120.000000
0.14406000000000002  0.000000  0.000000  0.000000  -23.264249642518912  4.990734479590895  0.22862125329394906  41.97171089830009  5.808429324044672  -7.9196736771071174  57.134654977658414  10.25401592585022  -6.4561492563345295  19.11850031354915  120.000000
0.19208000000000003  0.000000  0.000000  0.000000  -23.59697028489174  4.911607893547392  0.07991793555024017  42.272292827917326  6.1682211095055735  -7.551154902945016  48.13321386939524  10.725403859155595  0.8092088701693423  18.455475436351357  120.000000
0.24010000000000004  0.000000  0.000000  0.000000  -23.901577215424567  4.850577839970751  -0.08687918490732566  42.56556827328746  6.3928540964671114  -7.196813951288369  39.16194727133702  11.564532129466233  7.601978731288286  17.734579519110632  120.000000
0.28812000000000004  0.000000  0.000000  0.000000  -24.279626648712572  4.8426044490577915  -0.21450229114007485  42.87950236427598  6.521144531045121  -6.833598902074884  30.93623057420714  12.790632045114434  13.233303260253042  16.978759487169842  120.000000
0.33614000000000005  0.000000  0.000000  0.000000  -24.807155538696605  4.911737229809528  -0.23831841483059646  43.224909588861784  6.59808333507077  -6.4638744454578525  23.92474031010763  14.364445919062224  17.322455638256653  16.210479565397726  120.000000
0.38416000000000006  0.000000  0.000000  0.000000  -25.542574876707526  5.0986664807877276  -0.10320785942235415  43.6001007157679  6.6565200415145185  -6.093584454719684  18.19705992849274  16.211159846598154  19.9105539064528  15.452809052527021  120.000000
0.43218000000000006  0.000000  0.000000  0.000000  -26.49593593743344  5.431855444075874  0.23377853651428487  43.99612913431018  6.709558741138865  -5.727085972233733  13.512720976034682  18.253918143602867  21.351052985844817  14.716810624616068  120.000000
0.48020000000000007  0.000000  0.000000  0.000000  -27.648819443635514  5.931068006298058  0.8031241059023692  44.401047453342166  6.7472893742600135  -5.36418557740403  9.60571531051088  20.436529282709092  22.01633696456302  14.01387049482104  120.000000
0.5282200000000001  0.000000  0.000000  0.000000  -28.965044010993786  6.598412826070929  1.6183806505556275  44.80296492475497  6.746355582754889  -5.008052553955006  6.279141557353193  22.722577750724962  22.19650889036005  13.352423522964042  120.000000
0.5762400000000001  0.000000  0.000000  0.000000  -30.404492237491223  7.422322153888077  2.677783464082429  45.191139660889704  6.674955859963999  -4.66414626672001  3.421647047730112  25.0855272047463  22.07885879585329  12.7395996719454  120.000000
0.62426  0.000000  0.000000  0.000000  -31.925190172175796  8.377288887984461  3.9603459465564526  45.557131049604685  6.50948348120123  -4.333355264763538  0.9773812418879558  27.499862402621257  21.77355734741235  12.178726816054208  120.000000
0.6722800000000001  0.000000  0.000000  0.000000  -33.48839367318323  9.436539158270849  5.438656468109249  45.898798815093336  6.234111449665735  -4.0151963765101835  -1.0679309969520465  29.938395131956657  21.323657756394056  11.670983895077391  120.000000
0.7203000000000002  0.000000  0.000000  0.000000  -35.060296571719476  10.568046728939214  7.094293210551872  46.21779774778787  5.837952999102438  -3.7160477687423876  -2.7199547914458373  32.3731825297296  20.73592844476447  11.2106119556486  120.000000
0.7683200000000001  0.000000  0.000000  0.000000  -36.614336814478  11.741425465050622  8.91429904100601  46.52124148449902  5.316439634692478  -3.4479292014884497  -3.983894236929908  34.7754282623145  19.991085993064235  10.78450985213743  120.000000
0.8163400000000001  0.000000  0.000000  0.000000  -38.13139610418472  12.92288189037564  10.889731259364655  46.81608629590889  4.67467090985839  -3.2219145231437634  -4.879175941731833  37.12025494139763  19.065353389918318  10.37235120060112  120.000000
0.8643600000000001  0.000000  0.000000  0.000000  -39.59773782994208  14.082315738031623  13.004317216530794  47.10993471267184  3.930732962636135  -3.0441846558791563  -5.442114551602239  39.38722815209387  17.944139462287584  9.952031655226529  120.000000
0.9123800000000002  0.000000  0.000000  0.000000  -41.00094113589873  15.190260089172334  15.2388463690029  47.408102663035784  3.110974352698724  -2.91563231613981  -5.7295483247826295  41.56208393134331  16.638869464479292  9.507022788896162  120.000000
0.9604000000000001  0.000000  0.000000  0.000000  -42.32569777707312  16.221644805376965  17.579967447951738  47.71186878458075  2.236104387085968  -2.8426055986360854  -5.814706947307571  43.63176550420867  15.193258240133842  9.035206195455084  120.000000
1.00842  0.000000  0.000000  0.000000  -43.55316688279948  17.156186338918914  20.015655626607245  48.014126841601524  1.3203792633056686  -2.836511955620973  -5.781648167103364  45.58287945026705  13.681849246047442  8.550594580934597  120.000000
1.0564400000000003  0.000000  0.000000  0.000000  -44.66626686419794  17.982041699756568  22.52609618317457  48.30156176377286  0.37370819693866136  -2.907497946465517  -5.71360866186084  47.400385516265  12.197126654973331  8.078164793501541  120.000000
1.1044600000000002  0.000000  0.000000  0.000000  -45.65300399511292  18.695667537682976  25.080628121823093  48.560616390396724  -0.5978030682858527  -3.0623689741145954  -5.681157006528387  49.068649867358765  10.833563208576141  7.646297035327919  120.000000
1.1524800000000002  0.000000  0.000000  0.000000  -46.51048073504117  19.29927856556451  27.640765586187754  48.780954002429525  -1.591105614985707  -3.2999351194294535  -5.7346984569312  50.57233033484703  9.673892236221189  7.280366626059581  120.000000
1.2005000000000001  0.000000  0.000000  0.000000  -47.24209186840379  19.80084585577727  30.158999395156986  48.96079269240446  -2.6027646131748217  -3.6130914564217087  -5.9014487547071095  51.89723531954919  8.779759366483376  6.998986290316331  120.000000
1.24852  0.000000  0.000000  0.000000  -47.85497805005964  20.208929062874855  32.58500447869606  49.10395836770136  -3.62599642029652  -3.9889428005610252  -6.188060526582992  53.03060424658373  8.188896934889767  6.814350936120877  120.000000
1.2965400000000002  0.000000  0.000000  0.000000  -48.35615341097466  20.53254529127269  34.86888995274896  49.216766716751664  -4.647305482055232  -4.412354616279263  -6.586925966726152  53.96329544532662  7.915247077947216  6.732322450213404  120.000000
1.3445600000000002  0.000000  0.000000  0.000000  -48.752796629184765  20.779534635235958  36.96838997439042  49.30502968253761  -5.646242455270577  -4.865515095185917  -7.082750704542947  54.69359821749166  7.9508461750615185  6.750854001830774  120.000000
1.3925800000000002  0.000000  0.000000  0.000000  -49.05207006808243  20.955869005077158  38.853422492797534  49.37515559034495  -6.595076594679167  -5.329014294185621  -7.658360695107202  55.22835988442694  8.266698730928917  6.854802285483924  120.000000
1.4406000000000003  0.000000  0.000000  0.000000  -49.26223320847371  21.06418002877457  40.50947890644851  49.43564077208289  -7.461526402272531  -5.780945145790166  -8.29793583337667  55.58412733750887  8.815934245942053  7.013302854596796  120.000000
